<svg width="1000" height="1000" viewBox="0 0 1000 1000" fill="none" xmlns="http://www.w3.org/2000/svg">
<rect x="360" y="342" width="104" height="101" fill="#F7D58E"/>
<rect x="647" y="589" width="104" height="101" fill="#F7D58E"/>
<circle cx="377" cy="410" r="11" fill="#533600"/>
<circle cx="664" cy="657" r="11" fill="#533600"/>
<circle cx="404" cy="387" r="10" fill="#533600"/>
<circle cx="691" cy="634" r="10" fill="#533600"/>
<circle cx="441.5" cy="366.5" r="12.5" fill="#533600"/>
<circle cx="728.5" cy="613.5" r="12.5" fill="#533600"/>
<circle cx="373" cy="366" r="13" fill="#533600"/>
<circle cx="660" cy="613" r="13" fill="#533600"/>
<circle cx="417" cy="430" r="13" fill="#533600"/>
<circle cx="704" cy="677" r="13" fill="#533600"/>
<circle cx="442" cy="402" r="9" fill="#533600"/>
<circle cx="729" cy="649" r="9" fill="#533600"/>
<path d="M157.547 479C153.555 479 150.193 477.424 147.461 474.272C144.73 471.12 143.364 467.128 143.364 462.295V320.462C143.364 313.528 144.309 306.279 146.2 298.714C148.302 291.15 152.084 284.111 157.547 277.597C163.22 270.873 171.205 265.41 181.501 261.207C191.797 257.005 205.245 254.904 221.845 254.904C243.908 254.904 261.033 260.367 273.22 271.293C285.407 282.22 291.5 298.609 291.5 320.462C291.5 329.287 289.82 337.377 286.458 344.731C283.306 352.086 278.473 357.654 271.959 361.436C282.255 366.059 289.609 372.468 294.022 380.662C298.645 388.857 300.956 400.204 300.956 414.702C300.956 435.715 294.442 451.684 281.415 462.61C268.597 473.537 248.74 479 221.845 479H157.547ZM186.544 355.763C189.276 352.401 193.688 349.774 199.782 347.883C206.085 345.992 213.44 345.047 221.845 345.047C231.72 345.047 238.444 343.261 242.017 339.688C245.799 335.906 247.69 329.497 247.69 320.462C247.69 309.956 245.484 302.497 241.071 298.084C236.869 293.461 230.46 291.15 221.845 291.15C209.658 291.15 201.043 293.356 196 297.769C191.167 302.181 188.75 309.746 188.75 320.462C188.75 326.976 188.645 332.229 188.435 336.221C188.435 340.004 188.225 343.366 187.805 346.307C187.595 349.249 187.174 352.401 186.544 355.763ZM188.75 442.439H221.845C234.452 442.439 243.172 440.232 248.005 435.82C253.048 431.407 255.569 424.368 255.569 414.702C255.569 401.044 252.943 391.274 247.69 385.39C242.647 379.507 234.032 376.565 221.845 376.565C213.23 376.565 206.506 377.721 201.673 380.032C196.84 382.133 193.478 385.915 191.587 391.379C189.696 396.842 188.75 404.616 188.75 414.702V442.439ZM408.252 481.521C389.971 481.521 374.422 477.949 361.604 470.805C348.787 463.451 339.016 451.474 332.292 434.874C325.778 418.274 322.522 395.791 322.522 367.425C322.522 339.058 325.778 316.68 332.292 300.29C339.016 283.901 348.787 272.239 361.604 265.305C374.422 258.371 389.971 254.904 408.252 254.904C426.743 254.904 442.292 258.371 454.899 265.305C467.717 272.239 477.382 283.901 483.896 300.29C490.62 316.68 493.982 339.058 493.982 367.425C493.982 395.791 490.62 418.274 483.896 434.874C477.382 451.474 467.717 463.451 454.899 470.805C442.292 477.949 426.743 481.521 408.252 481.521ZM408.252 439.917C416.657 439.917 423.801 437.921 429.684 433.929C435.778 429.936 440.401 422.687 443.552 412.181C446.914 401.675 448.595 386.756 448.595 367.425C448.595 347.883 446.914 333.07 443.552 322.984C440.401 312.688 435.778 305.754 429.684 302.181C423.801 298.399 416.657 296.508 408.252 296.508C400.057 296.508 392.913 298.399 386.819 302.181C380.726 305.754 375.998 312.688 372.636 322.984C369.484 333.07 367.908 347.883 367.908 367.425C367.908 386.756 369.484 401.675 372.636 412.181C375.998 422.687 380.726 429.936 386.819 433.929C392.913 437.921 400.057 439.917 408.252 439.917ZM537.997 479C534.005 479 530.643 477.424 527.911 474.272C525.179 471.12 523.814 467.128 523.814 462.295V320.462C523.814 313.528 524.759 306.279 526.65 298.714C528.752 291.15 532.534 284.111 537.997 277.597C543.67 270.873 551.655 265.41 561.951 261.207C572.247 257.005 585.695 254.904 602.295 254.904C624.358 254.904 641.483 260.367 653.67 271.293C665.857 282.22 671.95 298.609 671.95 320.462C671.95 329.287 670.269 337.377 666.907 344.731C663.756 352.086 658.923 357.654 652.409 361.436C662.705 366.059 670.059 372.468 674.472 380.662C679.095 388.857 681.406 400.204 681.406 414.702C681.406 435.715 674.892 451.684 661.864 462.61C649.047 473.537 629.19 479 602.295 479H537.997ZM566.994 355.763C569.726 352.401 574.138 349.774 580.232 347.883C586.535 345.992 593.89 345.047 602.295 345.047C612.17 345.047 618.894 343.261 622.466 339.688C626.249 335.906 628.14 329.497 628.14 320.462C628.14 309.956 625.933 302.497 621.521 298.084C617.318 293.461 610.91 291.15 602.295 291.15C590.107 291.15 581.492 293.356 576.449 297.769C571.617 302.181 569.2 309.746 569.2 320.462C569.2 326.976 569.095 332.229 568.885 336.221C568.885 340.004 568.675 343.366 568.255 346.307C568.045 349.249 567.624 352.401 566.994 355.763ZM569.2 442.439H602.295C614.902 442.439 623.622 440.232 628.455 435.82C633.498 431.407 636.019 424.368 636.019 414.702C636.019 401.044 633.393 391.274 628.14 385.39C623.097 379.507 614.482 376.565 602.295 376.565C593.68 376.565 586.956 377.721 582.123 380.032C577.29 382.133 573.928 385.915 572.037 391.379C570.146 396.842 569.2 404.616 569.2 414.702V442.439ZM754.347 460.404C754.347 474.482 746.992 481.521 732.284 481.521C725.139 481.521 719.466 479.735 715.264 476.163C711.061 472.591 708.96 467.338 708.96 460.404V335.591C708.96 306.594 714.843 285.897 726.61 273.5C738.377 261.102 756.763 254.904 781.768 254.904C807.403 254.904 826.314 261.207 838.501 273.815C850.688 286.422 856.782 307.014 856.782 335.591V460.404C856.782 474.482 849.427 481.521 834.719 481.521C827.574 481.521 821.901 479.735 817.699 476.163C813.496 472.591 811.395 467.338 811.395 460.404V384.445C807.403 388.017 802.99 391.064 798.157 393.585C793.534 396.106 788.071 397.367 781.768 397.367C772.522 397.367 765.588 399.048 760.965 402.41C756.553 405.772 754.347 411.761 754.347 420.376V460.404ZM752.455 368.055C755.817 364.693 759.81 362.067 764.432 360.175C769.265 358.284 775.044 357.339 781.768 357.339C789.752 357.339 795.846 356.708 800.048 355.448C804.461 354.187 807.508 351.77 809.189 348.198C810.87 344.626 811.71 339.373 811.71 332.439C811.71 316.89 809.504 306.279 805.091 300.606C800.679 294.722 792.799 291.78 781.452 291.78C770.946 291.78 763.697 294.827 759.705 300.921C755.922 306.804 754.031 317.731 754.031 333.7C754.031 341.895 753.926 348.829 753.716 354.502C753.506 360.175 753.086 364.693 752.455 368.055ZM243.67 728C239.678 728 236.211 726.529 233.269 723.587C230.537 720.436 229.172 716.548 229.172 711.926V571.353C229.172 549.5 235.055 532.796 246.822 521.239C258.799 509.682 276.029 503.904 298.512 503.904C357.347 503.904 386.764 542.041 386.764 618.316C386.764 655.508 379.41 683.139 364.701 701.209C349.992 719.07 327.404 728 296.936 728H243.67ZM274.558 690.808H296.936C312.485 690.808 323.727 684.82 330.661 672.843C337.805 660.656 341.377 641.114 341.377 614.218C341.377 588.583 338.12 570.408 331.607 559.691C325.303 548.765 314.481 543.302 299.143 543.302C282.753 543.302 274.558 549.29 274.558 561.267V690.808ZM466.931 709.404C466.931 723.482 459.577 730.521 444.869 730.521C437.724 730.521 432.051 728.735 427.849 725.163C423.646 721.591 421.545 716.338 421.545 709.404V584.591C421.545 555.594 427.428 534.897 439.195 522.5C450.962 510.102 469.348 503.904 494.353 503.904C519.988 503.904 538.899 510.207 551.086 522.815C563.273 535.422 569.366 556.014 569.366 584.591V709.404C569.366 723.482 562.012 730.521 547.304 730.521C540.159 730.521 534.486 728.735 530.284 725.163C526.081 721.591 523.98 716.338 523.98 709.404V633.445C519.988 637.017 515.575 640.064 510.742 642.585C506.119 645.106 500.656 646.367 494.353 646.367C485.107 646.367 478.173 648.048 473.55 651.41C469.138 654.772 466.931 660.761 466.931 669.376V709.404ZM465.04 617.055C468.402 613.693 472.395 611.067 477.017 609.175C481.85 607.284 487.629 606.339 494.353 606.339C502.337 606.339 508.431 605.708 512.633 604.448C517.046 603.187 520.093 600.77 521.774 597.198C523.455 593.626 524.295 588.373 524.295 581.439C524.295 565.89 522.089 555.279 517.676 549.606C513.264 543.722 505.384 540.78 494.037 540.78C483.531 540.78 476.282 543.827 472.29 549.921C468.507 555.804 466.616 566.731 466.616 582.7C466.616 590.895 466.511 597.829 466.301 603.502C466.091 609.175 465.671 613.693 465.04 617.055ZM691.198 730.521C672.917 730.521 657.368 726.949 644.55 719.805C631.733 712.451 621.962 700.474 615.238 683.874C608.724 667.274 605.467 644.791 605.467 616.425C605.467 588.058 608.724 565.68 615.238 549.29C621.962 532.901 631.733 521.239 644.55 514.305C657.368 507.371 672.917 503.904 691.198 503.904C709.688 503.904 725.238 507.371 737.845 514.305C750.662 521.239 760.328 532.901 766.842 549.29C773.566 565.68 776.928 588.058 776.928 616.425C776.928 644.791 773.566 667.274 766.842 683.874C760.328 700.474 750.662 712.451 737.845 719.805C725.238 726.949 709.688 730.521 691.198 730.521ZM691.198 688.917C699.603 688.917 706.747 686.921 712.63 682.929C718.724 678.936 723.346 671.687 726.498 661.181C729.86 650.675 731.541 635.756 731.541 616.425C731.541 596.883 729.86 582.07 726.498 571.984C723.346 561.688 718.724 554.754 712.63 551.181C706.747 547.399 699.603 545.508 691.198 545.508C683.003 545.508 675.859 547.399 669.765 551.181C663.671 554.754 658.944 561.688 655.582 571.984C652.43 582.07 650.854 596.883 650.854 616.425C650.854 635.756 652.43 650.675 655.582 661.181C658.944 671.687 663.671 678.936 669.765 682.929C675.859 686.921 683.003 688.917 691.198 688.917Z" fill="black"/>
</svg>
